<svg width="28" height="10" viewBox="0 0 28 10" fill="none" xmlns="http://www.w3.org/2000/svg">
<g clip-path="url(#clip0_0_133)">
<path d="M8.33334 1.25H9.16668V3.75H8.33334V2.08333H6.66668V1.25H8.33334ZM1.66668 1.25H3.33334V2.08333H1.66668V3.75H0.833344V1.25H1.66668ZM8.33334 7.91667V6.25H9.16668V8.75H6.66668V7.91667H8.33334ZM1.66668 7.91667H3.33334V8.75H0.833344V6.25H1.66668V7.91667Z" fill="#6FA0E4"/>
</g>
<g clip-path="url(#clip1_0_133)">
<path d="M23 4.41083L25.0625 2.34833L25.6517 2.93749L23.5892 4.99999L25.6517 7.06249L25.0625 7.65166L23 5.58916L20.9375 7.65166L20.3483 7.06249L22.4108 4.99999L20.3483 2.93749L20.9375 2.34833L23 4.41083Z" fill="#6FA0E4"/>
</g>
<defs>
<clipPath id="clip0_0_133">
<rect width="10" height="10" fill="white"/>
</clipPath>
<clipPath id="clip1_0_133">
<rect width="10" height="10" fill="white" transform="translate(18)"/>
</clipPath>
</defs>
</svg>
