<svg width="193" height="21" viewBox="0 0 193 21" fill="none" xmlns="http://www.w3.org/2000/svg">
<path d="M19.2994 5.90757C18.8073 6.19049 18.3159 6.4744 17.8253 6.75929C17.1104 7.17404 16.3957 7.58919 15.6811 8.00473C15.1788 8.29709 14.6771 8.59091 14.1695 8.8871C14.056 8.64632 13.9455 8.40819 13.8323 8.17125C13.3631 7.19015 12.6781 6.39237 11.8028 5.75462C10.9329 5.11818 9.9161 4.71474 8.8482 4.58226C7.43012 4.39777 6.09385 4.68039 4.85523 5.39566C3.8457 5.97192 3.01319 6.81597 2.44865 7.83557C1.49916 9.53517 1.35724 11.3182 1.97655 13.1542C2.61081 15.0333 3.70663 16.5976 5.24699 17.8437C6.24038 18.6451 7.3729 19.2546 8.58722 19.6414C9.89343 20.0672 11.2744 20.2107 12.6397 20.0625C13.1001 20.0139 13.5555 19.9172 14.0132 19.8421C14.0549 19.8353 14.0962 19.8268 14.1376 19.8191C14.1411 19.8306 14.1443 19.8421 14.1478 19.8536C13.7921 19.9729 13.4408 20.1062 13.0804 20.209C10.9565 20.8135 8.84526 20.7934 6.75128 20.0599C5.2291 19.5265 3.90896 18.6697 2.78851 17.5095C1.91555 16.6059 1.23965 15.5673 0.741152 14.4091C0.377541 13.5645 0.122135 12.6921 0.0373899 11.7767C-0.123596 10.0259 0.233563 8.38756 1.142 6.87894C2.14252 5.21765 3.55151 4.04058 5.36721 3.38367C7.292 2.68726 9.21533 2.75858 11.1064 3.52896C12.5861 4.13282 13.7742 5.1089 14.6806 6.43157C14.7223 6.49188 14.7647 6.55191 14.8079 6.61164C14.8129 6.61871 14.824 6.62136 14.844 6.63256L17.2353 5.23887C15.3208 2.82401 12.8626 1.47865 9.82144 1.27177C6.78031 1.06488 4.16671 2.10462 1.92758 4.21269C3.49286 2.04037 6.43547 -0.0715247 10.2085 0.00185837C14.3745 0.0829039 17.3839 2.10609 19.4073 5.71041C19.4073 5.71041 19.4366 5.76935 19.4589 5.81297M14.1821 11.7815C13.1153 14.0089 11.4043 14.8924 8.99511 14.4306C9.42616 14.7663 9.88918 15.0147 10.3956 15.1503C11.9937 15.5785 13.401 15.2178 14.5953 14.0599C14.6803 13.9773 14.7402 13.9611 14.8442 14.0224C15.4137 14.3566 15.9861 14.6835 16.5573 15.0147C16.708 15.1031 16.8567 15.1916 17.0007 15.2782C16.9957 15.3077 16.9975 15.3183 16.9922 15.3245C16.9709 15.3511 16.9481 15.3765 16.9239 15.4005C15.7454 16.5472 14.3317 17.1688 12.7013 17.274C11.477 17.3538 10.3129 17.0936 9.24875 16.4856C7.32543 15.3867 6.2302 13.7106 5.96131 11.505C5.84401 10.5425 5.92612 9.58939 6.30644 8.68552C6.99173 7.05429 8.67988 5.97064 10.4085 6.10002C10.4645 6.10414 10.5214 6.10002 10.578 6.10002C10.5035 6.06535 10.4245 6.04144 10.3434 6.02899C9.77447 5.92699 9.19331 5.91367 8.62035 5.9895C7.07325 6.18106 5.86659 6.92138 5.05756 8.26821C4.40101 9.36158 4.21246 10.5619 4.37374 11.8153C4.51282 12.9353 4.88564 14.0131 5.46779 14.9782C6.48649 16.6657 7.92627 17.8286 9.78889 18.4537C10.9372 18.8392 12.118 18.9306 13.3188 18.8021C14.2582 18.701 15.1719 18.4315 16.0166 18.0063C16.9145 17.5578 17.708 16.9631 18.3598 16.1956C18.7273 15.7651 19.0498 15.2974 19.4111 14.8214L14.1821 11.7815Z" fill="white"/>
<path fill-rule="evenodd" clip-rule="evenodd" d="M42.2032 15.6924C46.2756 15.6924 48.934 13.5855 48.934 10.3191C48.934 7.05271 46.2756 4.94581 42.2032 4.94581C38.1167 4.94581 35.4724 7.05271 35.4724 10.3191C35.4724 13.5714 38.1167 15.6924 42.2032 15.6924ZM42.2032 13.5714C39.969 13.5714 38.4843 12.2563 38.4843 10.3191C38.4843 8.36775 39.969 7.06685 42.2032 7.06685C44.4232 7.06685 45.9079 8.36775 45.9079 10.3191C45.9079 12.2705 44.4232 13.5714 42.2032 13.5714Z" fill="white"/>
<path d="M70.0759 15.3389H67.4883V5.29932H70.5426L75.7603 10.9978L75.7866 11.0299C76.1008 11.4122 76.3733 11.7438 76.5522 12.1291H76.6087V5.29932H79.1964V15.3389H76.3542L70.9385 9.58381C70.6698 9.27272 70.288 8.76368 70.1325 8.43845H70.0759V15.3389Z" fill="white"/>
<path fill-rule="evenodd" clip-rule="evenodd" d="M98.7625 15.3389H105.083C108.689 15.3389 111.192 13.2744 111.192 10.1494C111.192 7.01029 108.83 5.29932 105.14 5.29932H98.7625V15.3389ZM101.619 13.4017V7.23653H104.701C106.752 7.23653 108.166 8.24049 108.166 10.206C108.166 12.2139 106.865 13.4017 104.716 13.4017H101.619Z" fill="white"/>
<path d="M129.571 10.814V5.29932H132.442V10.5453C132.442 12.2422 133.502 13.4441 135.482 13.4441C137.391 13.4441 138.508 12.2422 138.508 10.5453V5.29932H141.364V10.8423C141.364 13.741 139.272 15.6924 135.482 15.6924C131.678 15.6924 129.571 13.7269 129.571 10.814Z" fill="white"/>
<path d="M163.394 5.29932H160.538V15.3389H163.394V5.29932Z" fill="white"/>
<path d="M181.801 5.29932H193V7.51934H188.829V15.3389H185.972V7.51934H181.801V5.29932Z" fill="white"/>
</svg>
