<svg width="12" height="15" viewBox="0 0 12 15" fill="none" xmlns="http://www.w3.org/2000/svg">
<path d="M1 6.36397C0.447715 6.36397 0 6.81168 0 7.36397C0 7.91625 0.447715 8.36397 1 8.36397V6.36397ZM11.7071 8.07107C12.0976 7.68055 12.0976 7.04739 11.7071 6.65686L5.34315 0.2929C4.95262 -0.0976243 4.31946 -0.0976243 3.92893 0.2929C3.53841 0.683424 3.53841 1.31659 3.92893 1.70711L9.58579 7.36397L3.92893 13.0208C3.53841 13.4113 3.53841 14.0445 3.92893 14.435C4.31946 14.8256 4.95262 14.8256 5.34315 14.435L11.7071 8.07107ZM1 8.36397H11V6.36397H1V8.36397Z" fill="#082652" fill-opacity="0.5"/>
</svg>
