<svg width="24" height="24" viewBox="0 0 24 24" fill="none" xmlns="http://www.w3.org/2000/svg">
<g clip-path="url(#clip0_0_54)">
<mask id="mask0_0_54" style="mask-type:alpha" maskUnits="userSpaceOnUse" x="1" y="4" width="22" height="16">
<path d="M20.5 4.5H3.5C2.39543 4.5 1.5 5.39543 1.5 6.5V17.5C1.5 18.6046 2.39543 19.5 3.5 19.5H20.5C21.6046 19.5 22.5 18.6046 22.5 17.5V6.5C22.5 5.39543 21.6046 4.5 20.5 4.5Z" fill="white"/>
</mask>
<g mask="url(#mask0_0_54)">
<path d="M20.5 4.5H3.5C2.39543 4.5 1.5 5.39543 1.5 6.5V17.5C1.5 18.6046 2.39543 19.5 3.5 19.5H20.5C21.6046 19.5 22.5 18.6046 22.5 17.5V6.5C22.5 5.39543 21.6046 4.5 20.5 4.5Z" fill="white"/>
<path fill-rule="evenodd" clip-rule="evenodd" d="M1.5 4.5H10.5V11.5H1.5V4.5Z" fill="#444379"/>
<path fill-rule="evenodd" clip-rule="evenodd" d="M2.5 5.5V6.5H3.5V5.5H2.5ZM4.5 5.5V6.5H5.5V5.5H4.5ZM6.5 5.5V6.5H7.5V5.5H6.5ZM8.5 5.5V6.5H9.5V5.5H8.5ZM7.5 6.5V7.5H8.5V6.5H7.5ZM5.5 6.5V7.5H6.5V6.5H5.5ZM3.5 6.5V7.5H4.5V6.5H3.5ZM2.5 7.5V8.5H3.5V7.5H2.5ZM4.5 7.5V8.5H5.5V7.5H4.5ZM6.5 7.5V8.5H7.5V7.5H6.5ZM8.5 7.5V8.5H9.5V7.5H8.5ZM2.5 9.5V10.5H3.5V9.5H2.5ZM4.5 9.5V10.5H5.5V9.5H4.5ZM6.5 9.5V10.5H7.5V9.5H6.5ZM8.5 9.5V10.5H9.5V9.5H8.5ZM7.5 8.5V9.5H8.5V8.5H7.5ZM5.5 8.5V9.5H6.5V8.5H5.5ZM3.5 8.5V9.5H4.5V8.5H3.5Z" fill="#A7B6E7"/>
<path fill-rule="evenodd" clip-rule="evenodd" d="M10.5 4.5V5.5H22.5V4.5H10.5ZM10.5 6.5V7.5H22.5V6.5H10.5ZM10.5 8.5V9.5H22.5V8.5H10.5ZM10.5 10.5V11.5H22.5V10.5H10.5ZM1.5 12.5V13.5H22.5V12.5H1.5ZM1.5 14.5V15.5H22.5V14.5H1.5ZM1.5 16.5V17.5H22.5V16.5H1.5ZM1.5 18.5V19.5H22.5V18.5H1.5Z" fill="#E4364B"/>
<path d="M20.5 5H3.5C2.67157 5 2 5.67157 2 6.5V17.5C2 18.3284 2.67157 19 3.5 19H20.5C21.3284 19 22 18.3284 22 17.5V6.5C22 5.67157 21.3284 5 20.5 5Z" stroke="black"/>
</g>
</g>
<defs>
<clipPath id="clip0_0_54">
<rect width="21" height="15" fill="white" transform="translate(1.5 4.5)"/>
</clipPath>
</defs>
</svg>
