<svg width="330" height="12" viewBox="0 0 330 12" fill="none" xmlns="http://www.w3.org/2000/svg">
<path d="M291 1C291 0.447715 290.552 0 290 0C289.448 0 289 0.447715 289 1L291 1ZM289.293 11.7071C289.683 12.0976 290.317 12.0976 290.707 11.7071L297.071 5.34315C297.462 4.95262 297.462 4.31946 297.071 3.92893C296.681 3.53841 296.047 3.53841 295.657 3.92893L290 9.58579L284.343 3.92893C283.953 3.53841 283.319 3.53841 282.929 3.92893C282.538 4.31946 282.538 4.95262 282.929 5.34315L289.293 11.7071ZM289 1V11H291V1L289 1Z" fill="#082652" fill-opacity="0.5"/>
</svg>
